<?xml version="1.0" encoding="UTF-8"?>
<svg version="1.1" xmlns="http://www.w3.org/2000/svg" width="512" height="512">
<path d="M0 0 C43.9326966 17.81602443 117.08474361 16.85955189 160.734375 -1.5859375 C170.42754859 -3.64774514 181.39374304 0.39626425 190.875 2.5625 C192.50247448 2.9312842 194.12999766 3.29985354 195.75756836 3.66821289 C198.94403191 4.39059448 202.12951571 5.1171134 205.31445312 5.84619141 C208.7519587 6.6314166 212.19432504 7.39090471 215.640625 8.13671875 C268.60070236 19.80844423 268.60070236 19.80844423 280.5625 33.8125 C282 37.25 282 37.25 281.5625 40.8125 C272.73546896 54.64686501 247.49559972 59.19584951 232.8125 62.625 C230.84633281 63.09835699 228.88035122 63.5724855 226.91455078 64.04736328 C214.84873677 66.93442594 202.78958993 69.61872417 190.50146484 71.37353516 C187.12266739 71.87819356 183.76081927 72.46075603 180.39453125 73.04296875 C92.28499745 87.92840181 -32.18299566 90.89007612 -119.3671875 46.96484375 C-122.7502178 44.30173166 -124.22351768 42.82405277 -125.125 38.5625 C-123.99888031 34.05802124 -120.94872491 32.33042355 -117.11328125 29.984375 C-110.88740329 26.33809442 -104.34743594 23.64520233 -97.625 21.0625 C-96.9656546 20.80715485 -96.3063092 20.55180969 -95.62698364 20.28872681 C-78.61661071 13.75226215 -61.10400876 9.18980861 -43.4375 4.8125 C-41.96026743 4.44327275 -40.48305365 4.07397029 -39.00585938 3.70458984 C-34.88385152 2.67795064 -30.75595258 1.67745145 -26.625 0.6875 C-25.40417725 0.39190186 -24.18335449 0.09630371 -22.92553711 -0.20825195 C-7.85608093 -3.70569855 -7.85608093 -3.70569855 0 0 Z " fill="#FEFEFE" transform="translate(167.4375,188.1875)"/>
<path d="M0 0 C3.86970709 1.61655047 5.71710257 5.00484185 7.39331055 8.71948242 C10.97688636 19.10181226 14.00280648 29.61065392 16.92578125 40.1953125 C17.18651428 41.1342334 17.44724731 42.0731543 17.71588135 43.04052734 C22.57665676 60.56616041 27.03092826 78.16075837 31.11328125 95.8828125 C31.41817481 97.19729334 31.72318869 98.51174628 32.02832031 99.82617188 C32.90084328 103.5926026 33.7593197 107.36212617 34.61328125 111.1328125 C34.86899902 112.25236328 35.1247168 113.37191406 35.38818359 114.52539062 C35.73163818 116.07129883 35.73163818 116.07129883 36.08203125 117.6484375 C36.28248047 118.54336914 36.48292969 119.43830078 36.68945312 120.36035156 C37.11900507 122.91687846 37.19002411 125.29564802 37.11328125 127.8828125 C16.63322776 134.40512253 -4.35749948 138.36968085 -25.88671875 138.8828125 C-27.18222656 138.92277344 -28.47773438 138.96273437 -29.8125 139.00390625 C-53.1619762 139.48307811 -76.72710106 137.78547164 -99.82421875 134.4453125 C-100.90352661 134.29045883 -100.90352661 134.29045883 -102.00463867 134.13247681 C-111.07226947 132.81230883 -119.99116296 131.0926458 -128.88671875 128.8828125 C-123.3471591 95.45026047 -117.45000788 62.44080064 -107.88671875 29.8828125 C-107.64566406 29.03895996 -107.40460938 28.19510742 -107.15625 27.32568359 C-104.74051823 18.91637491 -101.76225938 11.54274521 -95.88671875 4.8828125 C-92.32531721 3.10211173 -88.75736997 3.13225353 -84.88671875 3.8828125 C-81.78295252 5.80555003 -79.39884909 8.25203945 -76.88671875 10.8828125 C-76.28988281 11.45773438 -75.69304687 12.03265625 -75.078125 12.625 C-71.96942802 15.62984296 -69.11310773 18.76768081 -66.32421875 22.0703125 C-62.12260938 26.86684001 -58.5143975 29.86621194 -52.07421875 30.8203125 C-44.36937272 31.22220462 -39.42777915 29.48392672 -33.59204102 24.34326172 C-29.30127547 20.39136796 -25.2238206 16.22390292 -21.12548828 12.07470703 C-8.26958808 -0.91068288 -8.26958808 -0.91068288 0 0 Z " fill="#FEFEFE" transform="translate(289.88671875,22.1171875)"/>
<path d="M0 0 C1.06250977 0.78697266 1.06250977 0.78697266 2.14648438 1.58984375 C3.27280273 2.45029297 3.27280273 2.45029297 4.421875 3.328125 C6.04094655 4.5322189 7.66075532 5.73532206 9.28125 6.9375 C10.09916016 7.54916016 10.91707031 8.16082031 11.75976562 8.79101562 C15.35163887 11.45220106 19.0087928 14.01633351 22.671875 16.578125 C28.5627499 20.71604864 34.40899234 24.91107515 40.234375 29.140625 C46.03328738 33.34951302 51.87963427 37.47478618 57.796875 41.515625 C68.93387014 49.13474605 68.93387014 49.13474605 73.171875 52.578125 C73.171875 53.238125 73.171875 53.898125 73.171875 54.578125 C71.63877686 54.81764893 71.63877686 54.81764893 70.07470703 55.06201172 C49.75605671 58.26461413 29.61736667 61.9060517 9.609375 66.703125 C8.74580383 66.90854919 7.88223267 67.11397339 6.99249268 67.32562256 C-4.10224464 69.97898256 -14.98437324 73.03302347 -25.828125 76.578125 C-26.47622131 76.78638412 -27.12431763 76.99464325 -27.79205322 77.20921326 C-34.78701888 79.12465184 -34.78701888 79.12465184 -40.296875 83.44921875 C-41.28286128 85.54417936 -41.28286128 85.54417936 -41.828125 88.578125 C-40.9721875 88.84834473 -40.11625 89.11856445 -39.234375 89.39697266 C-33.90523361 91.24490744 -28.85011568 93.68555732 -23.7421875 96.06347656 C-21.83607465 96.94943004 -19.92605558 97.82652825 -18.015625 98.703125 C-16.78621049 99.27290302 -15.55703568 99.8431986 -14.328125 100.4140625 C-13.2246875 100.92501465 -12.12125 101.4359668 -10.984375 101.96240234 C-7.73240723 103.62712409 -4.76112697 105.39880294 -1.828125 107.578125 C-1.828125 108.238125 -1.828125 108.898125 -1.828125 109.578125 C-2.55177246 109.75875488 -3.27541992 109.93938477 -4.02099609 110.12548828 C-41.56171249 119.54488185 -73.89594486 132.62031453 -104.99951172 156.19433594 C-106.5564156 157.372511 -108.13005566 158.52851672 -109.70703125 159.6796875 C-127.31138435 172.96066014 -140.44665551 192.23013246 -151.45361328 211.05566406 C-154.64008638 216.48410569 -154.64008638 216.48410569 -156.828125 217.578125 C-163.2975272 185.28371079 -149.39412343 149.55611606 -132.03369141 122.81396484 C-127.58718196 116.38991953 -122.79045178 110.25057564 -117.88696289 104.17163086 C-117.25395264 103.37764893 -116.62094238 102.58366699 -115.96875 101.765625 C-115.3902832 101.04890625 -114.81181641 100.3321875 -114.21582031 99.59375 C-112.42635646 96.9945569 -111.90856651 94.7153439 -111.828125 91.578125 C-111.168125 91.578125 -110.508125 91.578125 -109.828125 91.578125 C-109.745625 90.876875 -109.663125 90.175625 -109.578125 89.453125 C-108.64182249 85.86396536 -107.12076651 83.47764221 -104.828125 80.578125 C-103.838125 80.578125 -102.848125 80.578125 -101.828125 80.578125 C-101.580625 79.93875 -101.333125 79.299375 -101.078125 78.640625 C-99.828125 76.578125 -99.828125 76.578125 -97.703125 75.828125 C-97.084375 75.745625 -96.465625 75.663125 -95.828125 75.578125 C-95.828125 74.918125 -95.828125 74.258125 -95.828125 73.578125 C-94.6215625 73.083125 -94.6215625 73.083125 -93.390625 72.578125 C-89.24019674 70.54748587 -86.11415826 67.36851353 -82.78125 64.22265625 C-80.828125 62.578125 -80.828125 62.578125 -78.828125 62.578125 C-78.828125 61.918125 -78.828125 61.258125 -78.828125 60.578125 C-77.77717726 59.70430328 -76.68589014 58.87869477 -75.578125 58.078125 C-71.05940524 54.35360447 -69.5849421 50.03396905 -67.828125 44.578125 C-67.415625 43.381875 -67.003125 42.185625 -66.578125 40.953125 C-66.330625 40.169375 -66.083125 39.385625 -65.828125 38.578125 C-64.178125 38.248125 -62.528125 37.918125 -60.828125 37.578125 C-60.71404297 36.88356201 -60.59996094 36.18899902 -60.48242188 35.47338867 C-59.74726607 32.22032425 -58.62803782 29.33842237 -57.359375 26.25390625 C-56.87082031 25.06087891 -56.38226563 23.86785156 -55.87890625 22.63867188 C-55.3620083 21.38931086 -54.84508089 20.13996204 -54.328125 18.890625 C-53.81080507 17.6297184 -53.29387406 16.36865215 -52.77734375 15.10742188 C-49.01992306 5.96172112 -49.01992306 5.96172112 -47.828125 3.578125 C-44.999673 2.96940789 -42.23350704 2.48564315 -39.375 2.0703125 C-38.52262756 1.93996613 -37.67025513 1.80961975 -36.79205322 1.67532349 C-34.98358955 1.40056809 -33.17445833 1.13017713 -31.36474609 0.86376953 C-28.60227751 0.45668418 -25.8421152 0.03620132 -23.08203125 -0.38671875 C-21.32564092 -0.65183843 -19.56913386 -0.91618622 -17.8125 -1.1796875 C-16.98836609 -1.30465607 -16.16423218 -1.42962463 -15.31512451 -1.55838013 C-4.21167798 -3.1823027 -4.21167798 -3.1823027 0 0 Z " fill="#FDFDFD" transform="translate(399.828125,269.421875)"/>
<path d="M0 0 C1.15959229 0.10957031 2.31918457 0.21914063 3.51391602 0.33203125 C5.3284729 0.52152344 5.3284729 0.52152344 7.1796875 0.71484375 C8.34363037 0.82570313 9.50757324 0.9365625 10.70678711 1.05078125 C14.22671219 1.40745262 17.73209703 1.83492813 21.2421875 2.27734375 C22.43779297 2.39658203 23.63339844 2.51582031 24.86523438 2.63867188 C33.24851462 3.73665068 33.24851462 3.73665068 35.75585938 6.37060547 C36.82369642 8.45778792 37.52025545 10.4671562 38.1796875 12.71484375 C38.71438509 14.01269914 39.26386779 15.30456404 39.828125 16.58984375 C40.24167236 17.58419434 40.24167236 17.58419434 40.66357422 18.59863281 C48.20867583 36.51669879 58.50734476 53.20671347 70.1796875 68.71484375 C71.4302936 70.48524909 72.68030849 72.25607224 73.9296875 74.02734375 C75.33518234 75.93147419 76.75294521 77.82658135 78.1796875 79.71484375 C78.58944824 80.26285645 78.99920898 80.81086914 79.42138672 81.37548828 C87.6724853 92.27434975 97.12145481 101.97615883 106.7421875 111.65234375 C107.35621429 112.27413513 107.97024109 112.89592651 108.60287476 113.53656006 C117.97101741 122.99789554 127.57715829 132.01284424 139.1796875 138.71484375 C137.88094008 146.51982549 136.15073853 154.13297307 134.1171875 161.77734375 C133.7140332 163.32325195 133.7140332 163.32325195 133.30273438 164.90039062 C131.31811286 172.43799302 131.31811286 172.43799302 130.1796875 174.71484375 C126.24599521 173.99868662 122.93090173 172.15978118 119.43359375 170.3125 C118.04327437 169.5884236 116.65289044 168.86447115 115.26245117 168.140625 C114.52723236 167.75600098 113.79201355 167.37137695 113.03451538 166.97509766 C94.23825421 157.15394797 75.23899895 147.77286987 56.10296631 138.63348389 C54.36426009 137.80300351 52.62664462 136.97024046 50.88916016 136.13720703 C35.33960485 128.72134559 19.3354657 122.65943345 3.1796875 116.71484375 C4.9249311 112.94988498 7.00158093 110.80322851 10.1171875 108.02734375 C10.84917358 107.37270142 10.84917358 107.37270142 11.59594727 106.70483398 C15.73315861 103.03505914 20.02167248 99.56249201 24.328125 96.09375 C28.10555326 92.94244341 31.71012839 89.62179415 35.29663086 86.25610352 C38.98287405 82.81325047 38.98287405 82.81325047 41.1796875 81.71484375 C7.07636995 68.14180873 -31.43067069 60.53898107 -67.8203125 56.71484375 C-64.05245285 48.84178025 -56.62160087 43.63447357 -49.9453125 38.265625 C-40.27738673 30.44174336 -31.02428484 22.07371011 -21.8203125 13.71484375 C-19.23900399 11.37589357 -16.65671729 9.04096544 -14.04296875 6.73828125 C-11.87030054 4.83552479 -11.87030054 4.83552479 -10.31640625 3.00390625 C-7.04018579 -0.5363678 -4.49026518 -0.43265034 0 0 Z " fill="#FEFEFE" transform="translate(107.8203125,268.28515625)"/>
<path d="M0 0 C8.63357537 0.73313042 17.12605927 2.08443973 25.6640625 3.5390625 C31.85283622 4.53821392 38.00658366 5.21113677 44.265625 5.5480957 C45.43649532 5.6115781 45.43649532 5.6115781 46.63101959 5.67634296 C55.3676728 6.11564744 64.09784396 6.16407627 72.84375 6.16796875 C74.59094263 6.17119717 76.33813502 6.17456231 78.08532715 6.17805481 C81.71558254 6.18398047 85.34581435 6.18590137 88.97607422 6.18530273 C93.57444246 6.18520102 98.17265668 6.19889328 102.77098846 6.21607494 C106.36945256 6.22731233 109.96788064 6.22921845 113.56636047 6.22869301 C115.25963373 6.22985399 116.95290852 6.23416634 118.64616394 6.24202538 C127.36874395 6.27875548 135.97642781 6.05617067 144.65429688 5.1184082 C145.37006142 5.04187861 146.08582596 4.96534903 146.82328033 4.88650036 C153.05165169 4.14051749 158.95902569 2.5961078 164.9609375 0.8046875 C168 0 168 0 172 0 C172.54050613 9.44384328 172.32854473 18.2139959 166.45703125 26.0625 C164.73686949 27.88894178 162.97004217 29.44833792 161 31 C160.13955078 31.70769531 160.13955078 31.70769531 159.26171875 32.4296875 C149.22600217 39.69322541 134.96057567 40.13053776 123 39 C112.09080207 36.37804685 103.6835238 26.46270259 97 18 C97 17.34 97 16.68 97 16 C90.82258987 14.73283895 83.05893981 13.79674916 77 16 C76.73832031 16.54398437 76.47664063 17.08796875 76.20703125 17.6484375 C71.06363071 27.66891362 61.36880851 35.18977519 51 39 C39.58633636 42.62338528 26.48123518 39.48409724 16.125 34.25 C8.80735029 29.9541711 4.70527717 24.85452004 1.74609375 16.91015625 C0.32498747 11.36709774 0.16424488 5.6992974 0 0 Z " fill="#FDFDFD" transform="translate(159,274)"/>
</svg>
