<?xml version="1.0" encoding="UTF-8"?>
<svg version="1.1" xmlns="http://www.w3.org/2000/svg" width="500" height="500">
<path d="M0 0 C6.38912469 2.60806633 12.92499972 3.95335881 19.67578125 5.296875 C21.59801514 5.68588989 21.59801514 5.68588989 23.55908203 6.08276367 C33.24742041 7.99540161 42.83518103 9.41186876 52.67578125 10.171875 C54.46435547 10.33623047 54.46435547 10.33623047 56.2890625 10.50390625 C85.33420703 12.8846558 115.02841332 10.8308249 143.3059082 3.75073242 C146.43011915 2.9876229 149.5744178 2.33258994 152.72509766 1.68847656 C154.99083541 1.15669301 154.99083541 1.15669301 158.11328125 -0.515625 C165.47460242 -3.22769069 172.99765355 -0.65909247 180.328125 1.35546875 C183.1539193 2.04460645 185.92854581 2.57162383 188.79296875 3.05859375 C194.94254604 4.15103155 200.87040276 5.80499706 206.86328125 7.546875 C213.77598016 9.52987713 220.66438347 11.44765439 227.67578125 13.046875 C264.78633627 22.19742281 264.78633627 22.19742281 275.5 34.21875 C276.67578125 36.171875 276.67578125 36.171875 276.61328125 39.109375 C275.28074041 43.46234173 273.64871417 45.95352997 269.71484375 48.3828125 C257.13624042 54.94374513 244.03370447 59.1695968 230.30078125 62.421875 C228.90340482 62.76203226 227.50626822 63.1031763 226.109375 63.4453125 C223.44806843 64.09468109 220.7847085 64.7338159 218.11816406 65.36132812 C216.15167993 65.82435843 214.18648921 66.29317418 212.22558594 66.77929688 C206.41814296 68.17482081 200.54950651 68.88946484 194.62890625 69.64501953 C189.58615809 70.31709528 184.57559954 71.14499406 179.55664062 71.97363281 C140.08795916 78.43918682 100.58653645 79.60230993 60.67578125 79.171875 C59.66094666 79.16250916 59.66094666 79.16250916 58.62561035 79.1529541 C26.69177682 78.84867469 -4.63670654 75.11815738 -36.07470703 69.71386719 C-38.9445131 69.23520682 -41.81394213 68.80038674 -44.6953125 68.3984375 C-56.08880639 66.80050605 -66.93382312 63.99311351 -77.98632812 60.81933594 C-80.80707742 60.03815098 -83.6507116 59.41223129 -86.51171875 58.796875 C-91.95842557 57.45908736 -97.08091639 55.41684897 -102.26171875 53.296875 C-103.48894653 52.80501709 -103.48894653 52.80501709 -104.7409668 52.30322266 C-109.55660861 50.26619969 -112.82899101 48.19105529 -116.32421875 44.171875 C-116.98421875 43.511875 -117.64421875 42.851875 -118.32421875 42.171875 C-118.81060994 38.52394105 -118.72853237 36.76718447 -116.6394043 33.69116211 C-109.55347534 25.98055356 -98.67984943 22.4415948 -89.01171875 19.109375 C-87.18954834 18.46995972 -87.18954834 18.46995972 -85.33056641 17.81762695 C-74.98456714 14.25607788 -64.53647877 11.41197883 -53.91259766 8.82324219 C-49.87590828 7.80740676 -45.88534443 6.63921587 -41.88671875 5.484375 C-34.94057817 3.50242404 -27.99533367 2.0528633 -20.875 0.84765625 C-4.93587085 -2.18586338 -4.93587085 -2.18586338 0 0 Z " fill="#040404" transform="translate(161.32421875,181.828125)"/>
<path d="M0 0 C6.37264322 3.71426963 11.58749149 9.13230251 16 15 C16 15.66 16 16.32 16 17 C16.66 17 17.32 17 18 17 C18.721875 17.763125 19.44375 18.52625 20.1875 19.3125 C24.38627377 23.3246616 28.1456483 24.76072881 33.875 25.5 C38.27877528 25.36238202 41.45144128 23.39282429 45.1171875 21.09375 C47 20 47 20 49 20 C49 19.34 49 18.68 49 18 C50.3984375 16.58984375 50.3984375 16.58984375 52.375 14.9375 C56.53756404 11.4170336 60.53128474 7.74443464 64.5078125 4.015625 C68.26147283 0.97974925 72.12608891 -1.42736363 77.0625 -1.4375 C81.69468779 -0.92281247 82.97323456 -0.51759226 86 3 C92.30422491 14.1368011 95.69082998 26.96476821 98.47851562 39.38134766 C99.51257456 43.98581691 100.66377179 48.54032972 101.90600586 53.09301758 C103.89653637 60.39113596 105.5650679 67.61620946 106.76147461 75.08496094 C108.0692574 82.97340508 109.99351116 90.72233182 111.93139648 98.47680664 C113.74361957 105.9822713 114.62127709 113.29039581 115 121 C106.14639454 123.5735685 97.33575234 125.60249261 88.25 127.1875 C87.30503662 127.35411133 86.36007324 127.52072266 85.38647461 127.69238281 C71.79478478 129.99409643 58.37901625 130.24166885 44.625 130.25 C43.62279419 130.25067474 42.62058838 130.25134949 41.5880127 130.25204468 C24.86831211 130.23422374 8.56952935 129.37809553 -8 127 C-9.45539706 126.79438699 -10.91080106 126.58882307 -12.36621094 126.38330078 C-19.75403226 125.33272598 -27.13557877 124.24101582 -34.5078125 123.0859375 C-35.69004395 122.9007959 -36.87227539 122.7156543 -38.09033203 122.52490234 C-41 122 -41 122 -44 121 C-42.91470029 109.28624792 -40.67409362 97.86573565 -38.29638672 86.35302734 C-37.09252086 80.51284936 -35.92928747 74.67818104 -34.94068909 68.79800415 C-33.43813537 59.89084268 -31.47227429 51.16526165 -29.203125 42.4230957 C-28.6213761 40.17348647 -28.05637482 37.92008527 -27.4921875 35.66601562 C-25.54322686 28.01448248 -23.3334167 20.74696103 -20.11425781 13.5090332 C-19.01605427 11.03615024 -18.06324458 8.5370735 -17.125 6 C-15.76255129 3.00806264 -14.48155059 1.17267359 -11.75 -0.6875 C-7.17909016 -2.28731845 -4.28413937 -1.99816865 0 0 Z " fill="#040404" transform="translate(201,26)"/>
<path d="M0 0 C0.62003906 0.5775 1.24007812 1.155 1.87890625 1.75 C2.60980469 2.38808594 3.34070313 3.02617187 4.09375 3.68359375 C4.86847656 4.36550781 5.64320313 5.04742187 6.44140625 5.75 C8.25939149 7.12470292 10.09334495 8.47850304 11.94140625 9.8125 C12.77671875 10.42222656 13.61203125 11.03195312 14.47265625 11.66015625 C17.59017126 13.85472274 20.75359938 15.96726858 23.93017578 18.07495117 C28.52173707 21.13762879 33.07225857 24.26072207 37.62890625 27.375 C39.5388594 28.6799848 41.44901004 29.98468062 43.359375 31.2890625 C44.68074463 32.19446777 44.68074463 32.19446777 46.02880859 33.11816406 C48.03833013 34.47736685 50.06848697 35.78740612 52.1171875 37.0859375 C53.26767578 37.90964844 53.26767578 37.90964844 54.44140625 38.75 C54.44140625 39.41 54.44140625 40.07 54.44140625 40.75 C55.12589844 40.9871875 55.81039062 41.224375 56.515625 41.46875 C60.04674653 43.01508894 63.10695608 45.05380066 66.25390625 47.25 C67.15012695 47.85521484 67.15012695 47.85521484 68.06445312 48.47265625 C69.56284236 49.51039782 71.00756239 50.62475797 72.44140625 51.75 C72.44140625 52.41 72.44140625 53.07 72.44140625 53.75 C71.42643066 53.9358667 70.41145508 54.1217334 69.36572266 54.31323242 C67.92479851 54.57727751 66.48388113 54.84135947 65.04296875 55.10546875 C64.27047287 55.247034 63.49797699 55.38859924 62.70207214 55.53445435 C58.39525563 56.32443051 54.08910083 57.11781917 49.78393555 57.91674805 C48.02002227 58.24399264 46.25610626 58.57122248 44.4921875 58.8984375 C43.61698959 59.06086441 42.74179169 59.22329132 41.84007263 59.39064026 C37.0180121 60.28280053 32.19269216 61.1470114 27.359375 61.9765625 C4.31004266 66.01539102 -19.51550419 71.82175663 -40.875 81.5703125 C-43.55859375 82.75 -43.55859375 82.75 -45.55859375 82.75 C-45.55859375 83.41 -45.55859375 84.07 -45.55859375 84.75 C-44.77484375 84.976875 -43.99109375 85.20375 -43.18359375 85.4375 C-38.42804324 87.15933725 -34.05333565 89.44221585 -29.55859375 91.75 C-22.36070363 95.43148967 -15.22137285 99.06830345 -7.64453125 101.92578125 C-5.54614427 102.75491918 -3.56102744 103.71254001 -1.55859375 104.75 C-1.55859375 105.74 -1.55859375 106.73 -1.55859375 107.75 C-5.46454542 108.96518496 -9.19742153 109.85638143 -13.24609375 110.4375 C-21.5058635 111.85804292 -29.2960318 115.02778719 -37.14208984 117.89013672 C-39.51303061 118.73378729 -41.89746959 119.51443917 -44.29296875 120.28515625 C-47.93301837 121.48692379 -51.28085423 122.9698202 -54.68359375 124.75 C-57.79274379 126.35156469 -60.82129925 127.8578969 -64.05859375 129.1875 C-69.47219985 131.60428844 -74.47863392 134.70479247 -79.55859375 137.75 C-80.368125 138.22179687 -81.17765625 138.69359375 -82.01171875 139.1796875 C-91.75193963 145.18516111 -100.88416652 152.3129543 -109.55859375 159.75 C-110.49703125 160.55308594 -111.43546875 161.35617187 -112.40234375 162.18359375 C-117.91225949 167.03504428 -122.63010415 172.00879784 -127 177.9140625 C-127.77150391 178.82285156 -127.77150391 178.82285156 -128.55859375 179.75 C-129.21859375 179.75 -129.87859375 179.75 -130.55859375 179.75 C-130.93951172 180.82894531 -130.93951172 180.82894531 -131.328125 181.9296875 C-132.64948853 184.95833661 -134.24919917 187.24647472 -136.24609375 189.875 C-141.06218111 196.36358316 -145.91533129 203.00827994 -149.30859375 210.375 C-150.55859375 212.75 -150.55859375 212.75 -153.55859375 213.75 C-158.35042612 193.37497294 -152.3184967 169.65083726 -144.55859375 150.75 C-144.05561047 149.47150325 -143.5530019 148.19285902 -143.05078125 146.9140625 C-140.55257184 140.77971584 -137.84966852 135.29377566 -134 129.90625 C-131.92621222 126.80399836 -130.39123491 123.49317869 -128.83203125 120.109375 C-127.35157551 117.36644473 -125.54132351 115.15229617 -123.55859375 112.75 C-122.29923295 111.02763891 -121.04948758 109.29821307 -119.80859375 107.5625 C-117.02547215 103.73051542 -114.21409173 99.92778658 -111.30859375 96.1875 C-110.6846875 95.38183594 -110.06078125 94.57617188 -109.41796875 93.74609375 C-107.55859375 91.75 -107.55859375 91.75 -105.38671875 90.72265625 C-104.7834375 90.40167969 -104.18015625 90.08070313 -103.55859375 89.75 C-103.18312153 88.42791472 -102.85076317 87.09295418 -102.55859375 85.75 C-101.17578125 84.328125 -101.17578125 84.328125 -99.43359375 83 C-95.99034095 80.21294087 -93.17413125 77.16706789 -90.33203125 73.77734375 C-83.69694691 66.1923024 -75.95585756 59.28922206 -67.99609375 53.125 C-67.279375 52.568125 -66.56265625 52.01125 -65.82421875 51.4375 C-64.22274909 50.24468122 -62.582496 49.10311865 -60.91796875 48 C-54.29678268 43.35355363 -51.32295351 39.04590437 -49.88037109 31.02929688 C-48.74992007 23.02179248 -48.25916084 14.92914715 -47.79223633 6.86035156 C-47.55859375 4.75 -47.55859375 4.75 -46.55859375 3.75 C-44.1643119 3.30436218 -41.78318046 2.91345661 -39.375 2.55859375 C-38.64546616 2.44902847 -37.91593231 2.3394632 -37.16429138 2.22657776 C-35.611885 1.99498688 -34.05914261 1.76563926 -32.50610352 1.53833008 C-30.16094302 1.19336175 -27.81782853 0.8364008 -25.47460938 0.47851562 C-5.22834403 -2.55430548 -5.22834403 -2.55430548 0 0 Z " fill="#070707" transform="translate(390.55859375,261.25)"/>
<path d="M0 0 C1.24394531 0.2165625 2.48789063 0.433125 3.76953125 0.65625 C4.44717529 0.76573975 5.12481934 0.87522949 5.82299805 0.98803711 C7.29119976 1.22744852 8.75743744 1.47915644 10.22167969 1.74169922 C12.72491448 2.18134472 15.23237223 2.56655304 17.74609375 2.94140625 C30.85128277 4.91266717 30.85128277 4.91266717 34.58203125 6.15625 C35.95992598 8.53761154 37.164774 10.86168733 38.33203125 13.34375 C38.68346191 14.06699463 39.03489258 14.79023926 39.39697266 15.53540039 C40.46721243 17.73833873 41.5255826 19.94667103 42.58203125 22.15625 C46.81066153 30.91965573 51.32932369 39.33545529 56.38232422 47.64819336 C59.58203125 52.9531015 59.58203125 52.9531015 59.58203125 55.15625 C60.24203125 55.15625 60.90203125 55.15625 61.58203125 55.15625 C62.38640625 56.9196875 62.38640625 56.9196875 63.20703125 58.71875 C65.11143399 62.58235844 67.43823156 65.51630033 70.41015625 68.61328125 C71.58203125 70.15625 71.58203125 70.15625 71.58203125 73.15625 C72.24203125 73.15625 72.90203125 73.15625 73.58203125 73.15625 C75.11826409 74.99850531 76.54313177 76.84791951 77.95703125 78.78125 C81.78009762 83.88151478 85.7407477 88.8211786 89.89453125 93.65625 C90.63098877 94.51790771 90.63098877 94.51790771 91.38232422 95.39697266 C95.47942599 100.14237644 99.77785195 104.55475249 104.58203125 108.59375 C107.41503495 111.037807 109.71396594 113.53018758 112.03125 116.4765625 C116.52113376 121.33966078 122.08691453 125.49283885 127.58203125 129.15625 C127.58203125 129.81625 127.58203125 130.47625 127.58203125 131.15625 C128.13890625 131.40375 128.69578125 131.65125 129.26953125 131.90625 C132.1297025 133.45228851 134.30084026 134.81169259 136.58203125 137.15625 C136.96139488 142.06167371 136.26459607 146.06787426 134.83203125 150.74609375 C134.47109375 151.94169922 134.11015625 153.13730469 133.73828125 154.36914062 C133.1659375 156.21282227 133.1659375 156.21282227 132.58203125 158.09375 C132.0096875 159.97803711 132.0096875 159.97803711 131.42578125 161.90039062 C130.48645749 164.98841749 129.53831542 168.07344161 128.58203125 171.15625 C124.60202594 171.15625 121.84521036 169.44573469 118.39453125 167.65625 C116.94278884 166.91650865 115.49096364 166.17692976 114.0390625 165.4375 C113.29736816 165.05722656 112.55567383 164.67695313 111.79150391 164.28515625 C109.09196174 162.90585427 106.38171398 161.54890131 103.6685791 160.19657898 C99.08365967 157.9105904 94.50193174 155.6182199 89.92260742 153.32104492 C80.68314 148.6885798 71.42412677 144.0973522 62.13549805 139.56420898 C60.6350642 138.8307471 59.13572131 138.09504944 57.63745117 137.35717773 C49.28616366 133.24534299 40.98821504 129.35325734 32.23828125 126.15307617 C29.8493545 125.25656993 27.56748406 124.26178932 25.26953125 123.15625 C22.40039983 121.82126953 19.54057922 120.81875798 16.5078125 119.9375 C15.78053955 119.72480469 15.0532666 119.51210938 14.30395508 119.29296875 C12.84074039 118.87366715 11.37306529 118.46958394 9.90112305 118.08203125 C7.86328125 117.5 7.86328125 117.5 4.58203125 116.15625 C3.61328125 114 3.61328125 114 3.58203125 112.15625 C4.236875 111.63417969 4.89171875 111.11210937 5.56640625 110.57421875 C10.8207245 106.33662593 15.89831798 102.00953524 20.83203125 97.40625 C23.93766832 94.50940357 27.01627936 91.69780987 30.51953125 89.28125 C33.57721962 87.15958869 35.9948528 84.81734784 38.58203125 82.15625 C39.24203125 81.82625 39.90203125 81.49625 40.58203125 81.15625 C31.78288393 77.88923986 23.05970897 74.84524157 13.9152832 72.68969727 C10.22107776 71.81743593 6.56364888 70.88300305 2.91796875 69.82421875 C-19.84652018 63.24118362 -43.74055973 57.83041023 -67.41796875 56.15625 C-64.66847484 52.49666719 -61.81921211 49.67642333 -58.23046875 46.84375 C-53.88594389 43.3600419 -49.67665493 39.78004719 -45.53515625 36.05859375 C-42.84545916 33.6418364 -40.12338323 31.26356762 -37.3984375 28.88671875 C-36.02277901 27.6847134 -34.65062663 26.47868831 -33.28125 25.26953125 C-32.58386719 24.65464844 -31.88648438 24.03976562 -31.16796875 23.40625 C-30.5440625 22.85453125 -29.92015625 22.3028125 -29.27734375 21.734375 C-23.88331528 17.15625 -23.88331528 17.15625 -21.41796875 17.15625 C-20.92296875 15.67125 -20.92296875 15.67125 -20.41796875 14.15625 C-18.74472242 12.63408043 -17.00472743 11.18437495 -15.23046875 9.78125 C-14.28816406 9.03101563 -13.34585938 8.28078125 -12.375 7.5078125 C-11.39917969 6.73179687 -10.42335937 5.95578125 -9.41796875 5.15625 C-8.93980713 4.68735352 -8.46164551 4.21845703 -7.96899414 3.73535156 C-5.23791291 1.1266934 -3.81810291 0.17454185 0 0 Z " fill="#070707" transform="translate(104.41796875,259.84375)"/>
<path d="M0 0 C0.75506836 0.11593506 1.51013672 0.23187012 2.28808594 0.35131836 C5.77476589 0.88422751 9.26236297 1.41089232 12.75 1.9375 C13.93722656 2.11990234 15.12445313 2.30230469 16.34765625 2.49023438 C18.11689453 2.75610352 18.11689453 2.75610352 19.921875 3.02734375 C20.99018555 3.18968506 22.05849609 3.35202637 23.15917969 3.51928711 C33.95625854 4.87063775 44.7272677 5.22232043 55.59375 5.38671875 C57.19104012 5.41249606 58.78833016 5.43827844 60.38562012 5.46406555 C63.72725532 5.51673595 67.06892372 5.56564716 70.41064453 5.61254883 C73.77507327 5.66041295 77.13923425 5.71582103 80.50341797 5.77856445 C108.43778572 6.29656927 136.50251095 6.43304206 163.94140625 0.34765625 C164.62074219 0.23292969 165.30007813 0.11820312 166 0 C167.74610797 1.74610797 167.25498383 4.06117384 167.3125 6.4375 C167.205169 15.48550336 164.36711976 22.62413126 158.0859375 29.18359375 C148.53031654 37.50449964 135.57383366 40.6393981 123.0625 39.9375 C111.14096451 38.25991866 102.45050997 31.41878194 95.34765625 22.05078125 C94 20 94 20 93 17 C87.64313856 15.12039949 82.47367846 14.01925254 77 16 C72.47405854 18.95467122 69.13722974 22.65792847 66.0625 27.0625 C60.97033005 34.10689596 53.92665492 37.86566915 45.49609375 39.6484375 C32.66255256 40.9389612 20.68639177 38.26163058 10 31 C5.28073914 26.86267502 0.50072122 21.38867426 -0.23657227 14.92651367 C-0.29406988 12.6517487 -0.26266231 10.39914169 -0.1875 8.125 C-0.17396484 7.34125 -0.16042969 6.5575 -0.14648438 5.75 C-0.11141789 3.83303218 -0.05762072 1.91642249 0 0 Z " fill="#0E0E0E" transform="translate(157,266)"/>
<path d="M0 0 C0.33 0 0.66 0 1 0 C1.33 5.28 1.66 10.56 2 16 C2.99 14.68 3.98 13.36 5 12 C5.99 12.33 6.98 12.66 8 13 C7.40844669 14.31823302 6.80128537 15.62947051 6.1875 16.9375 C5.85105469 17.66839844 5.51460937 18.39929688 5.16796875 19.15234375 C4 21 4 21 1 22 C-0.17700048 17.37540756 -0.11408412 12.92133538 -0.0625 8.1875 C-0.05573242 7.00510742 -0.05573242 7.00510742 -0.04882812 5.79882812 C-0.03711312 3.86585239 -0.01917998 1.93291607 0 0 Z " fill="#585858" transform="translate(236,453)"/>
<path d="M0 0 C0.33 0.99 0.66 1.98 1 3 C-1.69980997 6.77973396 -3.71466857 9.14302305 -8 11 C-10.38506416 13.03172132 -10.97677282 13.93031846 -12 17 C-14.0625 17.6875 -14.0625 17.6875 -16 18 C-15.67 17.34 -15.34 16.68 -15 16 C-14.34 16 -13.68 16 -13 16 C-12.90203125 15.39929688 -12.8040625 14.79859375 -12.703125 14.1796875 C-11.85665237 11.55562236 -10.91289937 10.78949213 -8.75 9.125 C-5.33508513 6.36490386 -2.70970793 3.44871918 0 0 Z " fill="#898989" transform="translate(300,335)"/>
<path d="M0 0 C-1.40579765 3.37245758 -2.9583473 4.98208611 -5.9375 7.0625 C-8.52634874 8.88679154 -10.82026254 10.69726795 -13 13 C-13.99 12.67 -14.98 12.34 -16 12 C-13.71336873 9.99397361 -11.42114438 7.99508435 -9.125 6 C-8.14853516 5.14148438 -8.14853516 5.14148438 -7.15234375 4.265625 C-6.52714844 3.72421875 -5.90195312 3.1828125 -5.2578125 2.625 C-4.6817627 2.12226563 -4.10571289 1.61953125 -3.51220703 1.1015625 C-2 0 -2 0 0 0 Z " fill="#585858" transform="translate(336,305)"/>
<path d="M0 0 C-1.36486983 3.1528493 -2.83759259 4.97025502 -5.5 7.125 C-7.4295694 8.70299531 -9.23458294 10.23458294 -11 12 C-11.66 11.34 -12.32 10.68 -13 10 C-12.45730469 9.52949219 -11.91460937 9.05898438 -11.35546875 8.57421875 C-10.64003906 7.95160156 -9.92460937 7.32898437 -9.1875 6.6875 C-8.47980469 6.07261719 -7.77210938 5.45773438 -7.04296875 4.82421875 C-5.01755954 3.06723259 -5.01755954 3.06723259 -3.36328125 1.26953125 C-2 0 -2 0 0 0 Z " fill="#636363" transform="translate(263,34)"/>
<path d="M0 0 C0 0.33 0 0.66 0 1 C-1.41601714 1.48108275 -2.83284437 1.95978141 -4.25 2.4375 C-5.03890625 2.70433594 -5.8278125 2.97117187 -6.640625 3.24609375 C-8.74821988 3.91954708 -10.84753973 4.49150595 -13 5 C-8.53773904 -0.80093925 -7.26234473 -1.21039079 0 0 Z " fill="#474747" transform="translate(351,379)"/>
<path d="M0 0 C1.32 0 2.64 0 4 0 C4.99 1.98 5.98 3.96 7 6 C1.25 4.25 1.25 4.25 -1 2 C-0.67 1.34 -0.34 0.68 0 0 Z " fill="#464646" transform="translate(199,412)"/>
<path d="M0 0 C0.66 0 1.32 0 2 0 C0.92598892 2.91517292 0.22189824 4.77810176 -2 7 C-4.125 6.625 -4.125 6.625 -6 6 C-4 4 -2 2 0 0 Z " fill="#4F4F4F" transform="translate(143,342)"/>
<path d="M0 0 C0 0.66 0 1.32 0 2 C0.99 2.99 1.98 3.98 3 5 C-2.94 4.01 -2.94 4.01 -9 3 C-9 2.67 -9 2.34 -9 2 C-2.25 0 -2.25 0 0 0 Z " fill="#4F4F4F" transform="translate(93,321)"/>
<path d="M0 0 C0.33 0.99 0.66 1.98 1 3 C-0.40445835 5.2636564 -2.1967913 7.0208685 -4 9 C-4.66 8.34 -5.32 7.68 -6 7 C-4.02 4.69 -2.04 2.38 0 0 Z " fill="#505050" transform="translate(300,335)"/>
</svg>
