<?xml version="1.0" encoding="UTF-8"?>
<svg version="1.1" xmlns="http://www.w3.org/2000/svg" width="32" height="32">
<path d="M0 0 C4.80457383 1.80171519 6.88882406 5.57556451 9 10.125 C9.125 13.5 9.125 13.5 9 16.125 C10.90336809 17.78170412 10.90336809 17.78170412 13 19.125 C14.02601175 22.06195862 14.10795519 24.78404741 14.0625 27.875 C14.05347656 28.67421875 14.04445313 29.4734375 14.03515625 30.296875 C14.02355469 30.90015625 14.01195313 31.5034375 14 32.125 C11.41276011 33.41861994 9.51886997 33.25448949 6.625 33.2578125 C5.55765625 33.25910156 4.4903125 33.26039062 3.390625 33.26171875 C2.27171875 33.25785156 1.1528125 33.25398438 0 33.25 C-1.11890625 33.25386719 -2.2378125 33.25773437 -3.390625 33.26171875 C-4.99164062 33.25978516 -4.99164062 33.25978516 -6.625 33.2578125 C-7.60726563 33.25668457 -8.58953125 33.25555664 -9.6015625 33.25439453 C-12 33.125 -12 33.125 -14 32.125 C-14.38647343 22.26992754 -14.38647343 22.26992754 -12 18.125 C-11.01 17.465 -10.02 16.805 -9 16.125 C-9.061875 15.279375 -9.12375 14.43375 -9.1875 13.5625 C-8.86492883 7.64869529 -5.65670725 2.12126522 0 0 Z " fill="#7C888A" transform="translate(16,-1.125)"/>
<path d="M0 0 C5.28 0 10.56 0 16 0 C16 3.63 16 7.26 16 11 C10.06 11 4.12 11 -2 11 C-1.34 10.67 -0.68 10.34 0 10 C0 6.7 0 3.4 0 0 Z " fill="#EFF1F2" transform="translate(8,20)"/>
<path d="M0 0 C2.91134984 2.40502813 3.53613089 4.28904713 4 8 C4 8.99 4 9.98 4 11 C4.9590625 11.7115625 4.9590625 11.7115625 5.9375 12.4375 C8.41235199 14.31238787 8.49116618 15.01590164 9 18 C9.06548492 19.58211573 9.08578381 21.16670081 9.0625 22.75 C9.05347656 23.54921875 9.04445313 24.3484375 9.03515625 25.171875 C9.02355469 25.77515625 9.01195313 26.3784375 9 27 C7.68 27.33 6.36 27.66 5 28 C4.67 26.68 4.34 25.36 4 24 C4.99 23.67 5.98 23.34 7 23 C6.74779369 18.95047271 6.74779369 18.95047271 6 15 C4.19477722 13.30298973 4.19477722 13.30298973 2 13 C1.01 13.495 1.01 13.495 0 14 C0 12.68 0 11.36 0 10 C-0.99 11.485 -0.99 11.485 -2 13 C-4.9375 13.5 -4.9375 13.5 -8 13 C-9.9375 10.6875 -9.9375 10.6875 -11 8 C-10.67 7.01 -10.34 6.02 -10 5 C-7.25 3.625 -7.25 3.625 -4 3 C-1.125 4.375 -1.125 4.375 1 6 C0.67 4.02 0.34 2.04 0 0 Z " fill="#4D5758" transform="translate(21,4)"/>
<path d="M0 0 C2.4375 1 2.4375 1 5 3 C5.76381481 5.72714162 5.85942648 8.14167178 6 11 C4.68 11.33 3.36 11.66 2 12 C2.33 13.32 2.66 14.64 3 16 C-2.94 16 -8.88 16 -15 16 C-15 15.67 -15 15.34 -15 15 C-9.72 15 -4.44 15 1 15 C1 11.37 1 7.74 1 4 C-4.28 4 -9.56 4 -15 4 C-15 3.67 -15 3.34 -15 3 C-14.00097656 2.95101563 -13.00195312 2.90203125 -11.97265625 2.8515625 C-10.68230469 2.77679687 -9.39195313 2.70203125 -8.0625 2.625 C-6.77472656 2.55539063 -5.48695312 2.48578125 -4.16015625 2.4140625 C-3.11730469 2.27742188 -2.07445312 2.14078125 -1 2 C-0.67 1.34 -0.34 0.68 0 0 Z " fill="#888F91" transform="translate(23,16)"/>
<path d="M0 0 C2.25 0.125 2.25 0.125 5 1 C7.375 3.875 7.375 3.875 9 7 C8.67 7.99 8.34 8.98 8 10 C7.29875 9.46375 6.5975 8.9275 5.875 8.375 C3.00303974 6.62820892 3.00303974 6.62820892 -0.3125 7.8125 C-1.199375 8.204375 -2.08625 8.59625 -3 9 C-2.67 11.31 -2.34 13.62 -2 16 C-4.38822614 14.20883039 -4.95818959 13.22995724 -5.5 10.25 C-4.83009843 5.89563979 -2.76382829 3.33633558 0 0 Z " fill="#899698" transform="translate(14,1)"/>
<path d="M0 0 C0.86625 0.185625 1.7325 0.37125 2.625 0.5625 C3.285 1.8825 3.945 3.2025 4.625 4.5625 C3.635 3.9025 2.645 3.2425 1.625 2.5625 C-0.92960214 2.48977438 -0.92960214 2.48977438 -3.375 3.5625 C-5.87428273 6.50808321 -6.50242996 8.94598813 -6.8125 12.6875 C-7.47729811 17.26722032 -7.97230544 17.01047908 -11.375 19.5625 C-12.04478508 22.25784479 -12.19207103 24.77283318 -12.375 27.5625 C-11.385 27.8925 -10.395 28.2225 -9.375 28.5625 C-8.6875 30.625 -8.6875 30.625 -8.375 32.5625 C-10.355 32.2325 -12.335 31.9025 -14.375 31.5625 C-14.76147343 21.70742754 -14.76147343 21.70742754 -12.375 17.5625 C-11.385 16.9025 -10.395 16.2425 -9.375 15.5625 C-9.436875 14.716875 -9.49875 13.87125 -9.5625 13 C-9.2395079 7.07847823 -6.12121785 1.02020298 0 0 Z " fill="#494E50" transform="translate(16.375,-0.5625)"/>
<path d="M0 0 C0.042721 1.66611905 0.04063832 3.33382885 0 5 C-1 6 -1 6 -4 6.125 C-7 6 -7 6 -8 5 C-8.04063832 3.33382885 -8.042721 1.66611905 -8 0 C-4.71023192 -1.09658936 -3.28696233 -0.79953138 0 0 Z " fill="#4F6063" transform="translate(20,11)"/>
<path d="M0 0 C4.12575955 3.80004169 6.83178843 6.56036347 7.11328125 12.31640625 C7.1237616 14.54872095 7.08746779 16.76957144 7 19 C5.68 19.33 4.36 19.66 3 20 C2.67 18.68 2.34 17.36 2 16 C2.99 15.67 3.98 15.34 5 15 C4.74356896 10.95249785 4.74356896 10.95249785 4 7 C2.02329393 5.24577228 2.02329393 5.24577228 0 4 C0 2.68 0 1.36 0 0 Z " fill="#474E50" transform="translate(23,12)"/>
<path d="M0 0 C0.33 0.99 0.66 1.98 1 3 C0.67 3.66 0.34 4.32 0 5 C0.99 5.33 1.98 5.66 3 6 C-2.28 6 -7.56 6 -13 6 C-12.67 4.35 -12.34 2.7 -12 1 C-11.195625 1.495 -11.195625 1.495 -10.375 2 C-7.38358852 3.25954167 -5.21567216 3.34952958 -2 3 C-1.34 2.01 -0.68 1.02 0 0 Z " fill="#758385" transform="translate(21,13)"/>
</svg>
