<?xml version="1.0" encoding="UTF-8"?>
<svg version="1.1" xmlns="http://www.w3.org/2000/svg" width="32" height="32">
<path d="M0 0 C3.97748967 1.32582989 5.10108498 3.18989601 7.1171875 6.765625 C8.33335047 9.84370119 8 12.72271623 8 16 C10.41055254 17.66299965 10.41055254 17.66299965 13 19 C14.52415836 23.10350328 14.07337462 27.67089725 14 32 C11.41276011 33.29361994 9.51886997 33.12948949 6.625 33.1328125 C5.55765625 33.13410156 4.4903125 33.13539062 3.390625 33.13671875 C2.27171875 33.13285156 1.1528125 33.12898438 0 33.125 C-1.11890625 33.12886719 -2.2378125 33.13273437 -3.390625 33.13671875 C-4.99164062 33.13478516 -4.99164062 33.13478516 -6.625 33.1328125 C-7.60726563 33.13168457 -8.58953125 33.13055664 -9.6015625 33.12939453 C-12 33 -12 33 -14 32 C-14.17677674 26.87347454 -14.2087474 22.7488069 -12 18 C-11.29875 17.505 -10.5975 17.01 -9.875 16.5 C-9.25625 16.005 -8.6375 15.51 -8 15 C-8.020625 14.113125 -8.04125 13.22625 -8.0625 12.3125 C-7.95697908 6.71989118 -5.45050688 1.81683563 0 0 Z M-5 11 C-4.62095792 14.29075996 -4.62095792 14.29075996 -3 17 C-1.00041636 17.04080783 1.00045254 17.04254356 3 17 C3.66 15.02 4.32 13.04 5 11 C0.90086392 8.26724261 -0.90086392 8.26724261 -5 11 Z M-1 26 C-1 26.66 -1 27.32 -1 28 C-0.34 28 0.32 28 1 28 C1 27.34 1 26.68 1 26 C0.34 26 -0.32 26 -1 26 Z " fill="#000000" transform="translate(16,-1)"/>
</svg>
